<svg width="40" height="41" viewBox="0 0 40 41" fill="none" xmlns="http://www.w3.org/2000/svg">
<path d="M32.1739 5.65339C27.8583 5.65339 24.3478 9.16008 24.3478 13.4692C24.3478 13.9486 24.7365 14.3376 25.2174 14.3376C25.6983 14.3376 26.087 13.9486 26.087 13.4692C26.087 10.1171 28.8183 7.39023 32.1739 7.39023C35.5296 7.39023 38.2609 10.1171 38.2609 13.4692C38.2609 16.8213 35.5296 19.5481 32.1739 19.5481H0.869565C0.389565 19.5481 0 19.9372 0 20.4166C0 20.8959 0.389565 21.285 0.869565 21.285H32.1739C36.4896 21.285 40 17.7783 40 13.4692C40 9.16008 36.4896 5.65339 32.1739 5.65339Z" fill="#FFFCFC"/>
<path d="M15.6522 3.91655C12.2957 3.91655 9.56522 6.6434 9.56522 9.99551C9.56522 10.4749 9.95478 10.8639 10.4348 10.8639C10.9148 10.8639 11.3043 10.4749 11.3043 9.99551C11.3043 7.60127 13.2548 5.65339 15.6522 5.65339C18.0496 5.65339 20 7.60127 20 9.99551C20 12.3897 18.0496 14.3376 15.6522 14.3376H0.869565C0.389565 14.3376 0 14.7267 0 15.206C0 15.6854 0.389565 16.0745 0.869565 16.0745H15.6522C19.0087 16.0745 21.7391 13.3476 21.7391 9.99551C21.7391 6.6434 19.0087 3.91655 15.6522 3.91655Z" fill="#FFFCFC"/>
<path d="M30.4348 24.7587H0.869565C0.389565 24.7587 0 25.1478 0 25.6271C0 26.1065 0.389565 26.4955 0.869565 26.4955H30.4348C32.8322 26.4955 34.7826 28.4434 34.7826 30.8376C34.7826 33.2319 32.8322 35.1798 30.4348 35.1798C28.0374 35.1798 26.087 33.2319 26.087 30.8376C26.087 30.3583 25.6983 29.9692 25.2174 29.9692C24.7365 29.9692 24.3478 30.3583 24.3478 30.8376C24.3478 34.1898 27.0791 36.9166 30.4348 36.9166C33.7904 36.9166 36.5217 34.1898 36.5217 30.8376C36.5217 27.4855 33.7904 24.7587 30.4348 24.7587Z" fill="#FFFCFC"/>
</svg>
