<?xml version="1.0"?>
<svg width="100" height="100" xmlns="http://www.w3.org/2000/svg" xmlns:svg="http://www.w3.org/2000/svg" xmlns:xlink="http://www.w3.org/1999/xlink">
 <!-- Created with SVG-edit - https://github.com/SVG-Edit/svgedit-->
 <defs>
  <symbol height="508.044px" id="svg_2" viewBox="0 0 508.044 508.044" width="508.044px" x="0px" xmlns="http://www.w3.org/2000/svg" xmlns:xlink="http://www.w3.org/1999/xlink" y="0px">
   <g>
    <g>
     <path d="m0.108,352.536c0,66.794 54.144,120.938 120.937,120.938c66.794,0 120.938,-54.144 120.938,-120.938s-54.144,-120.937 -120.938,-120.937c-13.727,0 -26.867,2.393 -39.168,6.61c27.216,-156.091 148.937,-256.752 36.102,-173.906c-125.117,91.867 -118.005,284.537 -117.865,288.068c0,0.055 -0.006,0.104 -0.006,0.165z"/>
     <path d="m266.169,352.536c0,66.794 54.144,120.938 120.938,120.938s120.938,-54.144 120.938,-120.938s-54.145,-120.937 -120.939,-120.937c-13.728,0 -26.867,2.393 -39.168,6.61c27.216,-156.091 148.937,-256.752 36.102,-173.906c-125.117,91.867 -118.006,284.537 -117.865,288.068c0,0.055 -0.006,0.104 -0.006,0.165z"/>
    </g>
   </g>
   <g/>
   <g/>
   <g/>
   <g/>
   <g/>
   <g/>
   <g/>
   <g/>
   <g/>
   <g/>
   <g/>
   <g/>
   <g/>
   <g/>
   <g/>
  </symbol>
 </defs>
 <g class="layer">
  <title>Layer 1</title>
  <use fill="#c9c9c9" id="svg_3" transform="matrix(0.190024 0 0 0.2192 1.89622 -5.0151)" x="0" xlink:href="#svg_2" y="0"/>
  <g id="svg_4"/>
 </g>
</svg>