<?xml version="1.0"?>
<svg width="100" height="100" xmlns="http://www.w3.org/2000/svg" xmlns:svg="http://www.w3.org/2000/svg" xmlns:xlink="http://www.w3.org/1999/xlink">
 <!-- Created with SVG-edit - https://github.com/SVG-Edit/svgedit-->
 <defs>
  <symbol height="512" id="svg_2" viewBox="0 0 512.001 512.001" width="512" xmlns="http://www.w3.org/2000/svg">
   <g>
    <g>
     <path d="m305.87,119.425c0.077,-1.131 0.13,-2.268 0.13,-3.418l0,-20c0,-27.57 -22.43,-50 -50,-50s-50,22.43 -50,50l0,20c0,1.149 0.053,2.285 0.13,3.415c-14.035,8.127 -25.947,19.548 -34.674,33.328c-10.111,15.966 -15.456,34.383 -15.456,53.258l0,70c0,16.542 13.458,30 30,30l10,0l0,22.204c0,5.523 4.477,10 10,10s10,-4.477 10,-10l0,-42.204l80,0l0,160l-30,0l0,-125.53c0,-5.523 -4.477,-10 -10,-10s-10,4.477 -10,10l0,125.53l-30,0l0,-27.796c0,-5.523 -4.477,-10 -10,-10s-10,4.477 -10,10l0,27.796l-10,0c-5.523,0 -10,4.477 -10,10s4.477,10 10,10l140.001,0c5.523,0 10,-4.477 10,-10s-4.477,-10 -10,-10l-10,0l0,-140l10,0c16.542,0 30,-13.458 30,-30l0,-70c0,-18.825 -5.318,-37.199 -15.38,-53.137c-8.732,-13.83 -20.674,-25.294 -34.751,-33.446zm-79.869,-23.419c0,-16.542 13.458,-30 30,-30c16.542,0 30,13.458 30,30l0,20c0,16.542 -13.458,30 -30,30s-30,-13.458 -30,-30l0,-20zm-30.001,190.003l-10,0c-5.514,0 -10,-4.486 -10,-10l0,-60.001l20,-0.001l0,70.002zm110.001,-90.003c-2.652,0 -5.196,1.054 -7.071,2.929s-2.929,4.419 -2.929,7.071l0,60.002l-79.999,0l0,-60.002c0,-2.652 -1.054,-5.196 -2.929,-7.071s-4.419,-2.929 -7.071,-2.929l-29.38,0.002c2.88,-23.112 15.665,-43.673 35.205,-56.615c8.407,15.815 25.05,26.614 44.176,26.614c19.123,0 35.766,-10.796 44.173,-26.61c19.534,12.945 32.324,33.513 35.207,56.611l-29.382,-0.002zm30,80.003c0,5.514 -4.486,10 -10,10l-10,0l0,-70.002l20,0.001l0,60.001z"/>
     <path d="m98.377,27.585c-7.745,0 -14.966,2.966 -20.388,7.984l-26.775,-26.776c-5.667,-5.666 -13.2,-8.786 -21.214,-8.786c-8.013,0 -15.547,3.121 -21.213,8.787c-5.666,5.665 -8.787,13.199 -8.787,21.213c0,8.013 3.121,15.547 8.787,21.213l26.776,26.776c-5.018,5.422 -7.984,12.643 -7.984,20.388c0,16.541 13.457,29.998 29.998,29.998l40.8,0c16.541,0 29.998,-13.457 29.998,-29.998l0,-40.8c0,-16.542 -13.457,-29.999 -29.998,-29.999zm9.998,70.799c0,5.513 -4.485,9.998 -9.998,9.998l-40.8,0c-5.513,0 -9.998,-4.485 -9.998,-9.998c0,-4.29 2.726,-8.096 6.784,-9.472c3.273,-1.11 5.741,-3.832 6.526,-7.198s-0.224,-6.899 -2.667,-9.343l-35.293,-35.293c-1.889,-1.889 -2.929,-4.4 -2.929,-7.071s1.04,-5.182 2.929,-7.071c1.949,-1.95 4.51,-2.924 7.071,-2.924s5.122,0.975 7.071,2.924l35.292,35.292c2.444,2.444 5.98,3.454 9.343,2.667c3.366,-0.786 6.088,-3.253 7.198,-6.526c1.376,-4.058 5.183,-6.784 9.472,-6.784c5.513,0 9.998,4.485 9.998,9.998l0,40.801l0.001,0z"/>
     <path d="m413.625,128.382l40.8,0c16.541,0 29.998,-13.457 29.998,-29.998c0,-7.745 -2.966,-14.966 -7.984,-20.388l26.776,-26.776c5.666,-5.667 8.787,-13.2 8.787,-21.213c0,-8.014 -3.121,-15.547 -8.787,-21.213c-5.667,-5.666 -13.2,-8.787 -21.214,-8.787c-8.013,0 -15.547,3.121 -21.213,8.787l-26.775,26.776c-5.422,-5.018 -12.643,-7.984 -20.388,-7.984c-16.541,0 -29.998,13.457 -29.998,29.998l0,40.8c-0.001,16.541 13.456,29.998 29.998,29.998zm-9.999,-70.799c0,-5.513 4.485,-9.998 9.998,-9.998c4.29,0 8.096,2.726 9.472,6.784c1.11,3.273 3.832,5.741 7.198,6.526c3.367,0.786 6.899,-0.224 9.343,-2.667l35.292,-35.292c1.889,-1.889 4.4,-2.929 7.071,-2.929s5.183,1.04 7.072,2.929s2.929,4.399 2.929,7.071c0,2.671 -1.04,5.182 -2.929,7.071l-35.292,35.292c-2.444,2.444 -3.453,5.977 -2.667,9.343s3.253,6.088 6.526,7.198c4.058,1.376 6.784,5.183 6.784,9.472c0,5.513 -4.485,9.998 -9.998,9.998l-40.8,0c-5.513,0 -9.998,-4.485 -9.998,-9.998l0,-40.8l-0.001,0z"/>
     <path d="m98.377,383.633l-40.8,0c-16.541,0 -29.998,13.457 -29.998,29.998c0,7.745 2.966,14.966 7.984,20.388l-26.776,26.776c-5.666,5.666 -8.787,13.2 -8.787,21.213c0,8.014 3.121,15.547 8.787,21.214c5.849,5.848 13.531,8.772 21.213,8.772c7.683,0 15.365,-2.924 21.214,-8.772l26.775,-26.776c5.422,5.018 12.643,7.984 20.388,7.984c16.541,0 29.998,-13.457 29.998,-29.998l0,-40.8c0,-16.542 -13.457,-29.999 -29.998,-29.999zm9.998,70.799c0,5.513 -4.485,9.998 -9.998,9.998c-4.29,0 -8.096,-2.726 -9.472,-6.784c-1.11,-3.273 -3.832,-5.741 -7.198,-6.526c-3.367,-0.785 -6.899,0.224 -9.343,2.667l-35.292,35.293c-3.899,3.898 -10.244,3.899 -14.143,0s-3.899,-10.243 0,-14.142l35.292,-35.292c2.444,-2.444 3.453,-5.977 2.667,-9.343s-3.253,-6.088 -6.526,-7.198c-4.058,-1.376 -6.784,-5.183 -6.784,-9.472c0,-5.513 4.485,-9.998 9.998,-9.998l40.8,0c5.513,0 9.998,4.485 9.998,9.998l0,40.799l0.001,0z"/>
     <path d="m476.439,434.019c5.018,-5.422 7.984,-12.643 7.984,-20.388c0,-16.541 -13.457,-29.998 -29.998,-29.998l-40.8,0c-16.541,0 -29.998,13.457 -29.998,29.998l0,40.8c0,16.541 13.457,29.998 29.998,29.998c7.745,0 14.966,-2.966 20.388,-7.984l26.776,26.776c5.849,5.848 13.531,8.772 21.213,8.772c7.683,0 15.365,-2.924 21.214,-8.772c5.666,-5.667 8.787,-13.2 8.787,-21.214c0,-8.013 -3.121,-15.547 -8.787,-21.213l-26.777,-26.775zm12.634,55.061c-3.898,3.898 -10.243,3.899 -14.143,0l-35.292,-35.292c-1.897,-1.897 -4.45,-2.929 -7.071,-2.929c-0.756,0 -1.519,0.085 -2.272,0.261c-3.366,0.786 -6.088,3.253 -7.198,6.526c-1.376,4.058 -5.183,6.784 -9.472,6.784c-5.513,0 -9.998,-4.485 -9.998,-9.998l0,-40.8c0,-5.513 4.485,-9.998 9.998,-9.998l40.8,0c5.513,0 9.998,4.485 9.998,9.998c0,4.29 -2.726,8.096 -6.784,9.472c-3.273,1.11 -5.741,3.832 -6.526,7.198s0.224,6.899 2.667,9.343l35.292,35.292c1.889,1.889 2.929,4.4 2.929,7.071c0,2.672 -1.04,5.183 -2.928,7.072z"/>
     <path d="m206,383.216c5.523,0 10,-4.477 10,-10l0,-0.007c0,-5.523 -4.477,-9.996 -10,-9.996s-10,4.48 -10,10.003s4.478,10 10,10z"/>
    </g>
   </g>
  </symbol>
 </defs>
 <g class="layer">
  <title>Layer 1</title>
  <use fill="#f7efef" id="svg_3" transform="matrix(0.186713 0 0 0.186717 1.86792 1.86712)" x="0" xlink:href="#svg_2" y="0"/>
  <g id="svg_4"/>
 </g>
</svg>