<?xml version="1.0"?>
<svg width="100" height="100" xmlns="http://www.w3.org/2000/svg" xmlns:svg="http://www.w3.org/2000/svg" xmlns:xlink="http://www.w3.org/1999/xlink">
 <!-- Created with SVG-edit - https://github.com/SVG-Edit/svgedit-->
 <defs>
  <symbol id="svg_2" viewBox="0 0 368 368" x="0px" xmlns="http://www.w3.org/2000/svg" xmlns:xlink="http://www.w3.org/1999/xlink" y="0px">
   <g>
    <g>
     <path d="m296,48c-39.704,0 -72,32.304 -72,72c0,4.416 3.576,8 8,8s8,-3.584 8,-8c0,-30.88 25.128,-56 56,-56s56,25.12 56,56s-25.128,56 -56,56l-288,0c-4.416,0 -8,3.584 -8,8s3.584,8 8,8l288,0c39.704,0 72,-32.304 72,-72s-32.296,-72 -72,-72z"/>
    </g>
   </g>
   <g>
    <g>
     <path d="m144,32c-30.88,0 -56,25.12 -56,56c0,4.416 3.584,8 8,8s8,-3.584 8,-8c0,-22.056 17.944,-40 40,-40c22.056,0 40,17.944 40,40c0,22.056 -17.944,40 -40,40l-136,0c-4.416,0 -8,3.584 -8,8s3.584,8 8,8l136,0c30.88,0 56,-25.12 56,-56s-25.12,-56 -56,-56z"/>
    </g>
   </g>
   <g>
    <g>
     <path d="m280,224l-272,0c-4.416,0 -8,3.584 -8,8c0,4.416 3.584,8 8,8l272,0c22.056,0 40,17.944 40,40c0,22.056 -17.944,40 -40,40c-22.056,0 -40,-17.944 -40,-40c0,-4.416 -3.576,-8 -8,-8s-8,3.584 -8,8c0,30.88 25.128,56 56,56s56,-25.12 56,-56s-25.128,-56 -56,-56z"/>
    </g>
   </g>
   <g/>
   <g/>
   <g/>
   <g/>
   <g/>
   <g/>
   <g/>
   <g/>
   <g/>
   <g/>
   <g/>
   <g/>
   <g/>
   <g/>
   <g/>
  </symbol>
 </defs>
 <g class="layer">
  <title>Layer 1</title>
  <use fill="#f4f2f2" id="svg_3" transform="matrix(0.890102 0 0 1.028 6.52389 -1.87092)" x="0" xlink:href="#svg_2" y="0"/>
  <g id="svg_4"/>
 </g>
</svg>