<svg width="40" height="41" viewBox="0 0 40 41" fill="none" xmlns="http://www.w3.org/2000/svg">
<path d="M25.559 0.763797C25.2416 0.476053 24.7583 0.476053 24.4408 0.763797C24.0782 1.09039 15.7777 8.66676 11.9231 17.4479C11.5076 17.3022 11.0293 17.193 10.411 17.193C8.95184 17.193 8.16895 17.7368 7.53989 18.174C6.9906 18.556 6.55685 18.8575 5.62013 18.8575C4.68506 18.8575 4.25131 18.5559 3.7028 18.1748C3.07452 17.7375 2.29163 17.193 0.833356 17.193C0.372733 17.193 0 17.5653 0 18.0253C0 18.4853 0.372733 18.8575 0.833356 18.8575C1.76843 18.8575 2.20218 19.1591 2.75069 19.5402C3.37897 19.9775 4.16186 20.522 5.62013 20.522C7.07927 20.522 7.86294 19.9775 8.492 19.5402C9.04129 19.1591 9.47504 18.8575 10.411 18.8575C11.3485 18.8575 11.7831 19.1591 12.3332 19.541C12.9622 19.9782 13.7459 20.522 15.2059 20.522C16.665 20.522 17.4487 19.9782 18.0786 19.541C18.6279 19.159 19.0625 18.8575 20 18.8575C20.4606 18.8575 20.8334 18.4853 20.8334 18.0253C20.8334 17.5653 20.4606 17.193 20 17.193C18.5401 17.193 17.7563 17.7368 17.1265 18.174C16.5772 18.556 16.1426 18.8575 15.206 18.8575C14.3303 18.8575 13.8917 18.5907 13.3902 18.2447C16.5246 11.0151 23.0512 4.39851 25.0001 2.52412C27.5953 5.02159 38.3334 15.9333 38.3334 25.5153C38.3334 32.8574 32.3519 38.831 25.0001 38.831C21.6816 38.831 18.5416 37.5965 16.111 35.4169C17.0127 35.2501 17.5949 34.857 18.0787 34.5211C18.628 34.1391 19.0626 33.8376 20.0001 33.8376C20.4607 33.8376 20.8334 33.4654 20.8334 33.0054C20.8334 32.5453 20.4607 32.1731 20.0001 32.1731C18.5402 32.1731 17.7564 32.7168 17.1266 33.1541C16.5773 33.5361 16.1427 33.8375 15.206 33.8375C14.2685 33.8375 13.8339 33.536 13.2846 33.1541C12.6547 32.7168 11.871 32.1731 10.4111 32.1731C8.952 32.1731 8.16911 32.7168 7.54005 33.1541C6.99075 33.5361 6.55701 33.8375 5.62029 33.8375C4.68522 33.8375 4.25147 33.536 3.70295 33.1548C3.07468 32.7176 2.29179 32.1731 0.833512 32.1731C0.372889 32.1731 0.000156249 32.5453 0.000156249 33.0054C0.000156249 33.4654 0.372889 33.8376 0.833512 33.8376C1.76859 33.8376 2.20234 34.1392 2.75085 34.5203C3.37913 34.9575 4.16201 35.502 5.62029 35.502C7.07943 35.502 7.86309 34.9575 8.49216 34.5203C9.04145 34.1392 9.4752 33.8376 10.4111 33.8376C11.3486 33.8376 11.7832 34.1392 12.3333 34.5211C12.6728 34.7569 13.0688 35.0169 13.5803 35.2127C16.4396 38.5674 20.5845 40.4954 25.0001 40.4954C33.2707 40.4954 40 33.775 40 25.5153C39.9999 13.9397 26.1483 1.29614 25.559 0.763797Z" fill="white"/>
<path d="M0.833356 28.8442C1.76843 28.8442 2.20218 29.1458 2.75069 29.5269C3.37897 29.9641 4.16186 30.5087 5.62013 30.5087C6.08076 30.5087 6.45349 30.1364 6.45349 29.6764C6.45349 29.2164 6.08076 28.8441 5.62013 28.8441C4.68506 28.8441 4.25131 28.5426 3.7028 28.1615C3.07452 27.7242 2.29163 27.1797 0.833356 27.1797C0.372733 27.1797 0 27.552 0 28.012C0 28.472 0.372733 28.8442 0.833356 28.8442Z" fill="white"/>
<path d="M10.411 27.1798C9.95034 27.1798 9.57761 27.552 9.57761 28.0121C9.57761 28.4721 9.95034 28.8443 10.411 28.8443C11.3485 28.8443 11.7831 29.1459 12.3324 29.5278C12.9623 29.965 13.7459 30.5087 15.2059 30.5087C16.665 30.5087 17.4487 29.965 18.0786 29.5278C18.6279 29.1458 19.0625 28.8443 20 28.8443C20.953 28.8443 21.4379 29.154 22.0508 29.5457C22.7579 29.9968 23.5596 30.5088 25 30.5088C25.4606 30.5088 25.8333 30.1366 25.8333 29.6766C25.8333 29.2165 25.4606 28.8443 25 28.8443C24.047 28.8443 23.562 28.5346 22.9492 28.1429C22.242 27.6919 21.4404 27.1798 20 27.1798C18.5401 27.1798 17.7563 27.7235 17.1265 28.1608C16.5772 28.5428 16.1426 28.8442 15.2059 28.8442C14.2684 28.8442 13.8338 28.5427 13.2838 28.1608C12.6546 27.7234 11.871 27.1798 10.411 27.1798Z" fill="white"/>
<path d="M10.411 22.1864C8.95184 22.1864 8.16895 22.7301 7.53989 23.1674C6.9906 23.5494 6.55685 23.8508 5.62013 23.8508C4.68506 23.8508 4.25131 23.5493 3.7028 23.1682C3.07452 22.7309 2.29163 22.1864 0.833356 22.1864C0.372733 22.1864 0 22.5587 0 23.0187C0 23.4787 0.372733 23.8509 0.833356 23.8509C1.76843 23.8509 2.20218 24.1525 2.75069 24.5336C3.37897 24.9708 4.16186 25.5154 5.62013 25.5154C7.07927 25.5154 7.86294 24.9708 8.492 24.5336C9.04129 24.1525 9.47504 23.8509 10.411 23.8509C10.8716 23.8509 11.2443 23.4787 11.2443 23.0187C11.2443 22.5586 10.8716 22.1864 10.411 22.1864Z" fill="white"/>
<path d="M18.0786 24.5343C18.6279 24.1523 19.0625 23.8508 20 23.8508C20.9351 23.8508 21.3688 24.1524 21.9173 24.5335C22.5456 24.9708 23.3285 25.5153 24.7868 25.5153C26.2459 25.5153 27.0296 24.9708 27.6586 24.5335C28.2079 24.1524 28.6417 23.8508 29.5776 23.8508C30.0382 23.8508 30.411 23.4786 30.411 23.0186C30.411 22.5586 30.0382 22.1863 29.5776 22.1863C28.1185 22.1863 27.3356 22.7301 26.7065 23.1673C26.1572 23.5493 25.7235 23.8508 24.7868 23.8508C23.8517 23.8508 23.4179 23.5492 22.8694 23.1681C22.2412 22.7308 21.4583 22.1863 20 22.1863C18.5401 22.1863 17.7563 22.7301 17.1265 23.1673C16.5772 23.5493 16.1426 23.8508 15.2059 23.8508C14.7453 23.8508 14.3726 24.223 14.3726 24.683C14.3726 25.143 14.7453 25.5153 15.2059 25.5153C16.665 25.5153 17.4487 24.9715 18.0786 24.5343Z" fill="white"/>
</svg>
