<svg width="20" height="21" viewBox="0 0 20 21" fill="none" xmlns="http://www.w3.org/2000/svg">
<g clip-path="url(#clip0)">
<path d="M6.40136 9.42151C5.90877 9.27987 5.41618 9.20801 4.93702 9.20801C4.19708 9.20801 3.57967 9.37688 3.10093 9.58368C3.56247 7.89622 4.67121 4.98456 6.87989 4.65666C7.08444 4.62628 7.25206 4.47857 7.30786 4.27974L7.79059 2.55541C7.83129 2.40959 7.80717 2.2535 7.72388 2.12695C7.64059 2.0004 7.50675 1.91596 7.35675 1.89543C7.19374 1.87322 7.02758 1.86191 6.8629 1.86191C4.21177 1.86191 1.58624 4.62544 0.478329 8.58239C-0.172023 10.9038 -0.362723 14.394 1.23924 16.5908C2.13568 17.82 3.44351 18.4764 5.12646 18.542C5.13338 18.5422 5.14009 18.5424 5.14702 18.5424C7.22353 18.5424 9.06486 17.1458 9.625 15.1464C9.95962 13.9511 9.80836 12.6975 9.19871 11.6158C8.59556 10.5462 7.6022 9.76658 6.40136 9.42151Z" fill="white"/>
<path d="M19.3996 11.616C18.7964 10.5462 17.8031 9.76658 16.6022 9.42151C16.1096 9.27987 15.617 9.20801 15.1381 9.20801C14.3982 9.20801 13.7805 9.37688 13.3018 9.58367C13.7633 7.89622 14.8721 4.98456 17.081 4.65666C17.2855 4.62628 17.4529 4.47857 17.5089 4.27974L17.9917 2.55541C18.0324 2.40959 18.0082 2.2535 17.9249 2.12695C17.8419 2.0004 17.708 1.91596 17.5578 1.89543C17.395 1.87322 17.2289 1.86191 17.064 1.86191C14.4128 1.86191 11.7873 4.62544 10.6792 8.58239C10.029 10.9038 9.83835 14.394 11.4405 16.5912C12.3367 17.8202 13.6448 18.4768 15.3275 18.5422C15.3345 18.5424 15.3412 18.5426 15.3483 18.5426C17.4246 18.5426 19.2661 17.146 19.8263 15.1466C20.1605 13.9513 20.009 12.6975 19.3996 11.616Z" fill="white"/>
</g>
<defs>
<clipPath id="clip0">
<rect width="20" height="19.9737" fill="white" transform="translate(0 0.215515)"/>
</clipPath>
</defs>
</svg>
