<svg width="50" height="50" viewBox="0 0 50 50" fill="none" xmlns="http://www.w3.org/2000/svg">
<g clip-path="url(#clip0)">
<path d="M29.8701 11.6626C29.8776 11.5522 29.8828 11.4411 29.8828 11.3288V9.37569C29.8828 6.6833 27.6924 4.49287 25 4.49287C22.3076 4.49287 20.1172 6.6833 20.1172 9.37569V11.3288C20.1172 11.441 20.1224 11.552 20.1299 11.6623C18.7593 12.456 17.596 13.5713 16.7437 14.917C15.7563 16.4762 15.2344 18.2747 15.2344 20.118V26.9539C15.2344 28.5693 16.5486 29.8836 18.1641 29.8836H19.1406V32.052C19.1406 32.5913 19.5778 33.0285 20.1172 33.0285C20.6565 33.0285 21.0938 32.5913 21.0938 32.052V27.9305H28.9063V43.5555H25.9766V31.2967C25.9766 30.7573 25.5394 30.3201 25 30.3201C24.4606 30.3201 24.0234 30.7573 24.0234 31.2967V43.5555H21.0938V40.841C21.0938 40.3017 20.6565 39.8645 20.1172 39.8645C19.5778 39.8645 19.1406 40.3017 19.1406 40.841V43.5555H18.1641C17.6247 43.5555 17.1875 43.9927 17.1875 44.532C17.1875 45.0714 17.6247 45.5086 18.1641 45.5086H31.836C32.3754 45.5086 32.8126 45.0714 32.8126 44.532C32.8126 43.9927 32.3754 43.5555 31.836 43.5555H30.8595V29.8836H31.836C33.4515 29.8836 34.7657 28.5693 34.7657 26.9539V20.118C34.7657 18.2796 34.2464 16.4853 33.2638 14.9288C32.411 13.5782 31.2448 12.4587 29.8701 11.6626V11.6626ZM22.0704 9.37559C22.0704 7.76016 23.3847 6.4459 25.0001 6.4459C26.6155 6.4459 27.9298 7.76016 27.9298 9.37559V11.3287C27.9298 12.9441 26.6155 14.2584 25.0001 14.2584C23.3847 14.2584 22.0704 12.9441 22.0704 11.3287V9.37559ZM19.1406 27.9306H18.1641C17.6256 27.9306 17.1875 27.4925 17.1875 26.954V21.0945L19.1406 21.0944V27.9306ZM29.8829 19.1412C29.6239 19.1412 29.3755 19.2441 29.1924 19.4273C29.0093 19.6104 28.9063 19.8588 28.9063 20.1178V25.9774H21.0939V20.1178C21.0939 19.8588 20.991 19.6104 20.8079 19.4273C20.6248 19.2441 20.3764 19.1412 20.1174 19.1412L17.2482 19.1414C17.5295 16.8844 18.778 14.8765 20.6862 13.6126C21.5072 15.157 23.1325 16.2116 25.0003 16.2116C26.8678 16.2116 28.4931 15.1573 29.3141 13.613C31.2217 14.8772 32.4707 16.8857 32.7522 19.1414L29.8829 19.1412ZM32.8126 26.954C32.8126 27.4925 32.3745 27.9306 31.836 27.9306H30.8595V21.0944L32.8126 21.0945V26.954Z" fill="white"/>
<path d="M9.60713 2.69381C8.85078 2.69381 8.14561 2.98346 7.61611 3.4735L5.00137 0.858656C4.44795 0.305336 3.7123 0.000648499 2.92969 0.000648499C2.14717 0.000648499 1.41143 0.305434 0.858105 0.858754C0.304785 1.41198 0 2.14772 0 2.93034C0 3.71286 0.304785 4.4486 0.858105 5.00192L3.47295 7.61676C2.98291 8.14625 2.69326 8.85143 2.69326 9.60778C2.69326 11.2231 4.00742 12.5373 5.62275 12.5373H9.60713C11.2225 12.5373 12.5366 11.2231 12.5366 9.60778V5.6234C12.5366 4.00797 11.2225 2.69381 9.60713 2.69381V2.69381ZM10.5835 9.60778C10.5835 10.1462 10.1455 10.5841 9.60713 10.5841H5.62275C5.08437 10.5841 4.64639 10.1462 4.64639 9.60778C4.64639 9.18883 4.9126 8.81715 5.30889 8.68278C5.62852 8.57438 5.86953 8.30856 5.94619 7.97985C6.02285 7.65114 5.92432 7.30612 5.68574 7.06745L2.23916 3.62086C2.05469 3.43639 1.95312 3.19118 1.95312 2.93034C1.95312 2.6695 2.05469 2.42428 2.23916 2.23981C2.42949 2.04938 2.67959 1.95426 2.92969 1.95426C3.17979 1.95426 3.42988 2.04948 3.62021 2.23981L7.0667 5.68629C7.30537 5.92496 7.65068 6.0236 7.9791 5.94674C8.30781 5.86998 8.57363 5.62907 8.68203 5.30944C8.81641 4.91315 9.18818 4.64694 9.60703 4.64694C10.1454 4.64694 10.5834 5.08493 10.5834 5.6233V9.60778H10.5835Z" fill="white"/>
<path d="M40.3931 12.5375H44.3774C45.9928 12.5375 47.3069 11.2233 47.3069 9.60797C47.3069 8.85162 47.0173 8.14644 46.5272 7.61695L49.1421 5.00211C49.6954 4.44869 50.0002 3.71305 50.0002 2.93053C50.0002 2.14791 49.6954 1.41226 49.1421 0.858945C48.5887 0.305624 47.853 0.000839233 47.0704 0.000839233C46.2879 0.000839233 45.5521 0.305624 44.9988 0.858945L42.3841 3.47379C41.8546 2.98375 41.1494 2.6941 40.3931 2.6941C38.7777 2.6941 37.4636 4.00826 37.4636 5.62359V9.60797C37.4635 11.2233 38.7776 12.5375 40.3931 12.5375V12.5375ZM39.4166 5.6235C39.4166 5.08512 39.8546 4.64713 40.393 4.64713C40.8119 4.64713 41.1836 4.91334 41.318 5.30963C41.4264 5.62926 41.6922 5.87027 42.0209 5.94693C42.3497 6.02369 42.6946 5.92506 42.9333 5.68648L46.3798 2.24C46.5643 2.05553 46.8095 1.95396 47.0703 1.95396C47.3312 1.95396 47.5765 2.05553 47.7609 2.24C47.9454 2.42447 48.047 2.66959 48.047 2.93053C48.047 3.19137 47.9454 3.43658 47.7609 3.62105L44.3145 7.06754C44.0758 7.30621 43.9772 7.65123 44.054 7.97994C44.1308 8.30865 44.3717 8.57447 44.6913 8.68287C45.0876 8.81725 45.3538 9.18902 45.3538 9.60787C45.3538 10.1462 44.9158 10.5842 44.3774 10.5842H40.3931C39.8547 10.5842 39.4167 10.1462 39.4167 9.60787V5.6235H39.4166Z" fill="white"/>
<path d="M9.60713 37.4642H5.62275C4.00742 37.4642 2.69326 38.7783 2.69326 40.3937C2.69326 41.15 2.98291 41.8552 3.47295 42.3847L0.858105 44.9995C0.304785 45.5528 0 46.2886 0 47.0711C0 47.8537 0.304785 48.5894 0.858105 49.1428C1.4293 49.7139 2.17949 49.9994 2.92969 49.9994C3.67998 49.9994 4.43018 49.7139 5.00137 49.1428L7.61611 46.5279C8.14561 47.018 8.85078 47.3076 9.60713 47.3076C11.2225 47.3076 12.5366 45.9935 12.5366 44.3781V40.3938C12.5366 38.7783 11.2225 37.4642 9.60713 37.4642V37.4642ZM10.5835 44.3781C10.5835 44.9165 10.1455 45.3545 9.60713 45.3545C9.18818 45.3545 8.8165 45.0883 8.68213 44.692C8.57373 44.3724 8.30791 44.1314 7.9792 44.0547C7.65039 43.978 7.30547 44.0766 7.0668 44.3151L3.62031 47.7617C3.23955 48.1424 2.61992 48.1425 2.23916 47.7617C1.8584 47.381 1.8584 46.7614 2.23916 46.3807L5.68564 42.9342C5.92432 42.6955 6.02285 42.3505 5.94609 42.0218C5.86934 41.6931 5.62842 41.4273 5.30879 41.3189C4.9125 41.1845 4.64629 40.8127 4.64629 40.3939C4.64629 39.8555 5.08428 39.4175 5.62266 39.4175H9.60703C10.1454 39.4175 10.5834 39.8555 10.5834 40.3939V44.3781H10.5835Z" fill="white"/>
<path d="M46.5272 42.3847C47.0173 41.8552 47.3069 41.15 47.3069 40.3937C47.3069 38.7783 45.9928 37.4642 44.3774 37.4642H40.3931C38.7777 37.4642 37.4636 38.7783 37.4636 40.3937V44.378C37.4636 45.9934 38.7777 47.3075 40.3931 47.3075C41.1494 47.3075 41.8546 47.0179 42.3841 46.5278L44.9989 49.1427C45.5701 49.7138 46.3203 49.9993 47.0705 49.9993C47.8208 49.9993 48.571 49.7138 49.1422 49.1427C49.6955 48.5893 50.0003 47.8536 50.0003 47.071C50.0003 46.2885 49.6955 45.5527 49.1422 44.9994L46.5272 42.3847ZM47.761 47.7617C47.3804 48.1424 46.7607 48.1425 46.3799 47.7617L42.9334 44.3152C42.7481 44.13 42.4988 44.0292 42.2429 44.0292C42.169 44.0292 42.0945 44.0375 42.021 44.0547C41.6923 44.1315 41.4265 44.3724 41.3181 44.692C41.1837 45.0883 40.8119 45.3545 40.3931 45.3545C39.8547 45.3545 39.4167 44.9165 39.4167 44.3781V40.3938C39.4167 39.8554 39.8547 39.4174 40.3931 39.4174H44.3774C44.9158 39.4174 45.3538 39.8554 45.3538 40.3938C45.3538 40.8127 45.0876 41.1844 44.6913 41.3188C44.3717 41.4272 44.1307 41.693 44.054 42.0217C43.9773 42.3504 44.0759 42.6954 44.3145 42.9341L47.7609 46.3806C47.9454 46.565 48.047 46.8103 48.047 47.0711C48.047 47.332 47.9454 47.5773 47.761 47.7617V47.7617Z" fill="white"/>
<path d="M20.1172 37.4234C20.6565 37.4234 21.0938 36.9862 21.0938 36.4469V36.4462C21.0938 35.9068 20.6565 35.47 20.1172 35.47C19.5778 35.47 19.1406 35.9075 19.1406 36.4469C19.1406 36.9862 19.5779 37.4234 20.1172 37.4234Z" fill="white"/>
</g>
<defs>
<clipPath id="clip0">
<rect width="50" height="50" fill="white"/>
</clipPath>
</defs>
</svg>
